<svg width="1024" height="1024" viewBox="0 0 1024 1024" fill="none" xmlns="http://www.w3.org/2000/svg">
<rect width="1024" height="1024" rx="512" fill="#FFAEBD"/>
<path d="M249.594 772H97.25L268.891 252H461.859L633.5 772H481.156L367.406 395.203H363.344L249.594 772ZM221.156 566.844H507.563V672.469H221.156V566.844Z" fill="white"/>
<path d="M249.594 772V784H258.506L261.082 775.468L249.594 772ZM97.25 772L85.8547 768.239L80.6523 784H97.25V772ZM268.891 252V240H260.215L257.495 248.239L268.891 252ZM461.859 252L473.255 248.239L470.535 240H461.859V252ZM633.5 772V784H650.098L644.895 768.239L633.5 772ZM481.156 772L469.668 775.468L472.244 784H481.156V772ZM367.406 395.203L378.894 391.735L376.319 383.203H367.406V395.203ZM363.344 395.203V383.203H354.432L351.856 391.735L363.344 395.203ZM221.156 566.844V554.844H209.156V566.844H221.156ZM507.563 566.844H519.563V554.844H507.563V566.844ZM507.563 672.469V684.469H519.563V672.469H507.563ZM221.156 672.469H209.156V684.469H221.156V672.469ZM249.594 760H97.25V784H249.594V760ZM108.645 775.761L280.286 255.761L257.495 248.239L85.8547 768.239L108.645 775.761ZM268.891 264H461.859V240H268.891V264ZM450.464 255.761L622.105 775.761L644.895 768.239L473.255 248.239L450.464 255.761ZM633.5 760H481.156V784H633.5V760ZM492.644 768.532L378.894 391.735L355.918 398.671L469.668 775.468L492.644 768.532ZM367.406 383.203H363.344V407.203H367.406V383.203ZM351.856 391.735L238.106 768.532L261.082 775.468L374.832 398.671L351.856 391.735ZM221.156 578.844H507.563V554.844H221.156V578.844ZM495.563 566.844V672.469H519.563V566.844H495.563ZM507.563 660.469H221.156V684.469H507.563V660.469ZM233.156 672.469V566.844H209.156V672.469H233.156Z" fill="#FFAEBD"/>
<path d="M463.516 772V252H604.688V462.234H611.797L768.203 252H932.734L757.031 483.562L936.797 772H768.203L651.406 577L604.688 637.938V772H463.516Z" fill="white"/>
<path d="M463.516 772H451.516V784H463.516V772ZM463.516 252V240H451.516V252H463.516ZM604.688 252H616.688V240H604.688V252ZM604.688 462.234H592.688V474.234H604.688V462.234ZM611.797 462.234V474.234H617.826L621.425 469.397L611.797 462.234ZM768.203 252V240H762.174L758.575 244.837L768.203 252ZM932.734 252L942.294 259.254L956.903 240H932.734V252ZM757.031 483.562L747.472 476.309L742.475 482.894L746.847 489.91L757.031 483.562ZM936.797 772V784H958.416L946.981 765.653L936.797 772ZM768.203 772L757.908 778.166L761.403 784H768.203V772ZM651.406 577L661.701 570.834L652.627 555.685L641.883 569.699L651.406 577ZM604.688 637.938L595.164 630.636L592.688 633.867V637.938H604.688ZM604.688 772V784H616.688V772H604.688ZM475.516 772V252H451.516V772H475.516ZM463.516 264H604.688V240H463.516V264ZM592.688 252V462.234H616.688V252H592.688ZM604.688 474.234H611.797V450.234H604.688V474.234ZM621.425 469.397L777.831 259.163L758.575 244.837L602.169 455.072L621.425 469.397ZM768.203 264H932.734V240H768.203V264ZM923.175 244.746L747.472 476.309L766.591 490.816L942.294 259.254L923.175 244.746ZM746.847 489.91L926.613 778.347L946.981 765.653L767.215 477.215L746.847 489.91ZM936.797 760H768.203V784H936.797V760ZM778.498 765.834L661.701 570.834L641.112 583.166L757.908 778.166L778.498 765.834ZM641.883 569.699L595.164 630.636L614.211 645.239L660.93 584.301L641.883 569.699ZM592.688 637.938V772H616.688V637.938H592.688ZM604.688 760H463.516V784H604.688V760Z" fill="#FFAEBD"/>
<path d="M616 707L638.419 775H616V707Z" fill="#FFAEBD"/>
</svg>
